<?xml version="1.0" encoding="UTF-8"?>
<svg width="142px" height="152px" viewBox="0 0 142 152" version="1.1" xmlns="http://www.w3.org/2000/svg" xmlns:xlink="http://www.w3.org/1999/xlink">
    <!-- Generator: Sketch 62 (91390) - https://sketch.com -->
    <title>Combined-Shape Copy 2</title>
    <desc>Created with Sketch.</desc>
    <g id="Page-1" stroke="none" stroke-width="1" fill="none" fill-rule="evenodd">
        <g id="Hash-2" transform="translate(-757.000000, -2048.000000)" stroke="#5B0B42" stroke-width="2">
            <path d="M828.429498,2183.01265 L827.609167,2172.93688 L828.429498,2183.01265 Z M759.945227,2198.22939 L765.193784,2189.57908 L759.945227,2198.22939 Z M759.802844,2182.2019 L765.333554,2173.72993 L759.802844,2182.2019 Z M776.981486,2198.57072 L780.880675,2189.24088 L776.981486,2198.57072 Z M757.556075,2051.34077 L767.537217,2049.54172 L757.556075,2051.34077 Z M759.592014,2166.12116 L765.539421,2157.93298 L759.592014,2166.12116 Z M757.728632,2067.95836 L767.367534,2064.81197 L757.728632,2067.95836 Z M759.318744,2149.97287 L765.808249,2142.20385 L759.318744,2149.97287 Z M776.827739,2182.56822 L781.031287,2173.37116 L776.827739,2182.56822 Z M758.996228,2133.74633 L766.124495,2126.55401 L758.996228,2133.74633 Z M757.983875,2084.52271 L767.117254,2080.13181 L757.983875,2084.52271 Z M758.299207,2101.01949 L766.808192,2095.51948 L758.299207,2101.01949 Z M758.646934,2117.42737 L766.466213,2110.99268 L758.646934,2117.42737 Z M794.096904,2198.81962 L796.489975,2189.00031 L794.096904,2198.81962 Z M773.969378,2051.61805 L783.834263,2049.26834 L773.969378,2051.61805 Z M776.585166,2166.51586 L781.269419,2157.54921 L776.585166,2166.51586 Z M776.256511,2150.39243 L781.591281,2141.79548 L776.256511,2150.39243 Z M774.207379,2068.29253 L783.600703,2064.48092 L774.207379,2068.29253 Z M793.941067,2182.84185 L796.642415,2173.10065 L793.941067,2182.84185 Z M811.283775,2198.9511 L812.025731,2188.87143 L811.283775,2198.9511 Z M774.547007,2084.91025 L783.267607,2079.7513 L774.547007,2084.91025 Z M775.856272,2134.18008 L781.983944,2126.12728 L775.856272,2134.18008 Z M775.411751,2117.86815 L782.419843,2110.56257 L775.411751,2117.86815 Z M774.961222,2101.44257 L782.86149,2095.10291 L774.961222,2101.44257 Z M790.379154,2051.8279 L800.134313,2049.06553 L790.379154,2051.8279 Z M793.671716,2166.82517 L796.906019,2157.24668 L793.671716,2166.82517 Z M811.141001,2183.00184 L812.169028,2172.94691 L811.141001,2183.00184 Z M790.685342,2068.56994 L799.834395,2064.21158 L790.685342,2068.56994 Z M793.285716,2150.74078 L797.284181,2141.4539 L793.285716,2150.74078 Z M792.795476,2134.56398 L797.7658,2125.75354 L792.795476,2134.56398 Z M791.121894,2085.24806 L799.406203,2079.4213 L791.121894,2085.24806 Z M792.234306,2118.26285 L798.314952,2110.1749 L792.234306,2118.26285 Z M791.656024,2101.82295 L798.882261,2094.72956 L791.656024,2101.82295 Z M806.767246,2051.94519 L816.457092,2048.9511 L806.767246,2051.94519 Z M810.85924,2167.02772 L812.443735,2157.04438 L810.85924,2167.02772 Z M807.141882,2068.76898 L816.092384,2064.01489 L807.141882,2068.76898 Z M810.416809,2151.00387 L812.875193,2141.19888 L810.416809,2151.00387 Z M828.154792,2167.08825 L827.876558,2156.98776 L828.154792,2167.08825 Z M807.687638,2085.52534 L815.553943,2079.14663 L807.687638,2085.52534 Z M809.824681,2134.88044 L813.460006,2125.44515 L809.824681,2134.88044 Z M823.117457,2051.93087 L832.813834,2048.96542 L823.117457,2051.93087 Z M808.372641,2102.1536 L814.883047,2094.40672 L808.372641,2102.1536 Z M809.118255,2118.60769 L814.152586,2109.83631 L809.118255,2118.60769 Z M823.541992,2068.85438 L832.399749,2063.92975 L823.541992,2068.85438 Z M827.673173,2151.14251 L828.347204,2141.06024 L827.673173,2151.14251 Z M839.417638,2051.73183 L849.225047,2049.15821 L839.417638,2051.73183 Z M826.966878,2135.11163 L829.043833,2125.21682 L826.966878,2135.11163 Z M824.212626,2085.72438 L831.74061,2078.95123 L824.212626,2085.72438 Z M825.09383,2102.43453 L830.876649,2094.13309 L825.09383,2102.43453 Z M826.064251,2118.89916 L829.924253,2109.55239 L826.064251,2118.89916 Z M828.532955,2198.93691 L827.504927,2188.88197 L828.532955,2198.93691 Z M839.852884,2068.77614 L848.796854,2064.00903 L839.852884,2068.77614 Z M855.671577,2051.26605 L865.678844,2049.6167 L855.671577,2051.26605 Z M844.26243,2135.21825 L844.476657,2125.10994 L844.26243,2135.21825 Z M840.64487,2085.80613 L848.022634,2078.87286 L840.64487,2085.80613 Z M871.95752,2050.44124 L882.100638,2050.42302 L871.95752,2050.44124 Z M843.099465,2119.12319 L845.614018,2109.33122 L843.099465,2119.12319 Z M841.790069,2102.65127 L846.898857,2093.91895 L841.790069,2102.65127 Z M856.031844,2068.40995 L865.325892,2064.36793 L856.031844,2068.40995 Z M888.454031,2049.23957 L898.314997,2051.5997 L888.454031,2049.23957 Z M856.877387,2085.67465 L864.498114,2079.00174 L856.877387,2085.67465 Z M872.096767,2067.55312 L881.964264,2065.20601 L872.096767,2067.55312 Z M860.277323,2119.26183 L861.161662,2109.19258 L860.277323,2119.26183 Z M858.38651,2102.78288 L863.013287,2093.7876 L858.38651,2102.78288 Z M888.325625,2065.99593 L898.443925,2066.73534 L888.325625,2065.99593 Z M872.75669,2085.04173 L881.319232,2079.62373 L872.75669,2085.04173 Z M874.672452,2102.74734 L879.439,2093.82366 L874.672452,2102.74734 Z M888.375525,2083.10768 L898.393242,2081.51821 L888.375525,2083.10768 Z M889.581334,2101.60608 L897.208594,2094.94357 L889.581334,2101.60608 Z M896.720183,2118.09219 L890.209777,2110.3414 L896.720183,2118.09219 Z M897.92952,2132.55885 L889.024737,2127.72014 L897.92952,2132.55885 Z M897.983076,2148.39433 L888.97118,2143.75479 L897.983076,2148.39433 Z M897.861725,2164.54966 L889.092793,2159.47663 L897.861725,2164.54966 Z M897.658339,2180.81173 L889.291736,2175.09432 L897.658339,2180.81173 Z M897.390817,2197.0988 L889.55325,2190.68494 L897.390817,2197.0988 Z M877.80121,2119.22981 L876.370853,2109.22564 L877.80121,2119.22981 Z M879.724157,2134.48222 L874.483437,2125.83191 L879.724157,2134.48222 Z M880.394922,2149.94084 L873.82704,2142.23952 L880.394922,2149.94084 Z M880.555461,2165.73727 L873.670159,2158.31323 L880.555461,2165.73727 Z M880.494851,2181.72558 L873.73103,2174.19479 L880.494851,2181.72558 Z M880.312889,2197.81699 L873.905678,2189.98159 L880.312889,2197.81699 Z M861.797158,2135.10447 L859.670565,2125.22007 L861.797158,2135.10447 Z M862.66752,2150.77281 L858.817968,2141.42213 L862.66752,2150.77281 Z M863.056394,2166.53005 L858.436148,2157.53476 L863.056394,2166.53005 Z M863.163507,2182.41175 L858.332953,2173.52321 L863.163507,2182.41175 Z M863.099239,2198.38222 L858.394086,2189.42599 L863.099239,2198.38222 Z M845.079496,2151.10697 L843.67004,2141.095 L845.079496,2151.10697 Z M845.560984,2166.94961 L843.199264,2157.12249 L845.560984,2166.94961 Z M845.782264,2182.83118 L842.985559,2173.11471 L845.782264,2182.83118 Z M845.817926,2198.75557 L842.949376,2189.05993 L845.817926,2198.75557 Z" id="Combined-Shape-Copy-2"></path>
        </g>
    </g>
</svg>